<svg xmlns="http://www.w3.org/2000/svg" width="1280" height="800" viewBox="0 0 1280 800">
  <rect width="1280" height="800" fill="#0F172A"/>
  <rect x="0" y="0" width="1280" height="70" fill="#1e293b"/>
  <text x="100" y="45" fill="#009DE0" font-size="28" font-family="Arial" font-weight="bold">إنجزنا</text>
  <rect x="400" y="20" width="300" height="35" rx="8" fill="#334155"/>
  <text x="1180" y="45" fill="white" font-size="16" font-family="Arial" text-anchor="end">تسجيل دخول</text>
  <rect x="40" y="100" width="280" height="200" rx="12" fill="#1e293b"/>
  <rect x="340" y="100" width="280" height="200" rx="12" fill="#1e293b"/>
  <rect x="640" y="100" width="280" height="200" rx="12" fill="#1e293b"/>
  <rect x="940" y="100" width="280" height="200" rx="12" fill="#1e293b"/>
  <rect x="40" y="320" width="280" height="200" rx="12" fill="#1e293b"/>
  <rect x="340" y="320" width="280" height="200" rx="12" fill="#1e293b"/>
  <rect x="640" y="320" width="280" height="200" rx="12" fill="#1e293b"/>
  <rect x="940" y="320" width="280" height="200" rx="12" fill="#1e293b"/>
  <rect x="40" y="550" width="600" height="80" rx="12" fill="#009DE0"/>
  <text x="340" y="600" fill="white" font-size="20" font-family="Arial" text-anchor="middle">اكتشف المتاجر القريبة منك</text>
  <text x="640" y="720" fill="#64748b" font-size="18" font-family="Arial" text-anchor="middle">Placeholder - Replace with actual screenshot</text>
</svg>
